<?xml version="1.0" encoding="utf-8"?>
<!-- Generator: Adobe Illustrator 23.0.1, SVG Export Plug-In . SVG Version: 6.00 Build 0)  -->
<svg version="1.1" id="Layer_1" xmlns="http://www.w3.org/2000/svg" xmlns:xlink="http://www.w3.org/1999/xlink" x="0px" y="0px"
	 viewBox="0 0 1000 1000" enable-background="new 0 0 1000 1000" xml:space="preserve">
<g id="g4557_3_">
	<path id="path4_3_" fill="#FF0000" d="M577.6,132.9c-2.8,0.8-9.2,1.6-14.3,1.8c-20.4,0.4-86.4,17.1-110.4,27.7
		c-2.2,1-8.3,3.5-13.8,5.7c-14.3,5.5-52.3,23.6-58.2,27.9c-2.8,1.8-7.3,4.1-10.2,4.7c-2.9,0.8-5.3,2.2-5.3,2.9s-1.6,2-3.3,2.8
		c-2,0.6-6.1,2.9-9.4,5.1c-3.1,2.2-7.9,4.7-10.4,5.9c-2.6,1-7.5,4.1-11,6.9c-3.5,2.8-7.1,4.9-7.7,4.9c-4.5,0-67.8,46-85.7,62.1
		c-14.5,13.2-41.5,41.8-41.5,44.2c0,0.6-1.8,3.3-4.1,5.9c-5.9,6.7-23.6,34.6-28.7,45c-2.2,4.9-6.5,13.6-9.2,19.4
		c-9.6,19.6-13.6,41.1-12.6,66c1.2,24.6,6.7,37.3,23.4,54.2c17.5,17.5,36.1,25.1,65.6,26.7c20.2,1,34.8-0.6,55-6.3
		c6.5-1.8,15.1-3.9,19.3-5.1c4.1-1,8.8-2.6,10.8-3.7c4.5-2.4,29.9-13.8,31-13.8c3.5,0,45-25.3,83.3-50.9
		c25.3-16.9,47.5-31.6,49.5-32.6c1.8-1.2,13.8-8.3,26.5-15.9c12.8-7.5,28.5-16.5,35-19.8c6.5-3.3,15.7-8.3,20.6-10.8
		c4.9-2.4,14.1-6.7,20.6-9c6.5-2.6,14.5-5.9,17.7-7.3c3.3-1.4,8.1-3.5,10.8-4.7c7.7-3.1,25-6.3,41.8-7.5
		c36.5-2.4,62.1,13.8,75.2,47.5c3.1,8.1,3.7,14.7,3.7,38.3c0,28.7-2.6,44.4-10.2,62.9c-1.6,3.7-3.7,9-4.9,11.8
		c-9.8,23.6-30.1,57.4-53.2,88c-22,29.5-69.4,78.4-100.6,104.1c-10.8,9-22.8,18.9-26.5,22c-8.3,6.9-17.9,13.8-28.5,20.8
		c-4.3,2.8-11.4,7.5-15.7,10.6c-12.2,8.3-44.6,25.5-62.9,33.4c-5.3,2.4-12.6,5.5-16.1,7.1c-3.3,1.6-7.9,2.8-10,2.8
		c-2,0-6.5,1-10,2.2c-12.8,4.5-25.7-4.1-25.7-17.3c0-16.1,7.7-26.3,56-74.3c52.3-51.9,58-59.5,58-79.2c0-20.2-9.6-34-31.2-45
		c-9.4-4.9-13-5.5-29.5-5.5c-19.3,0-30.5,2.8-44.4,11.2c-3.1,2-8.1,4.5-10.8,5.9c-2.8,1.4-5.3,2.9-5.9,3.5c-0.6,0.6-4.5,3.5-8.8,6.9
		c-10.4,7.9-28.7,26.5-39.1,40.1c-7.3,9.4-12.6,18.3-25,41.5c-10.2,19.3-19.4,55-19.4,75.8c0,42.2,22,76,56,85.7
		c10.2,2.9,51.9,2.9,66.2,0.2c14.1-2.9,51.1-14.3,53.4-16.5c1.2-1,3.1-1.8,4.7-1.8c5.1,0,63.5-29.7,83.5-42.6
		c4.5-2.9,9.6-6.3,11.6-7.5c1.8-1,11-6.7,20.6-12.6c9.4-5.9,17.7-11.4,18.3-12c0.6-0.8,7.3-5.7,14.7-10.8
		c7.7-5.3,16.5-11.4,19.6-13.6c3.3-2.4,12.6-9.4,20.6-15.9c51.1-40.7,96.3-84.1,122.6-117.9c4.3-5.3,8.3-10.2,8.8-10.8
		c1.6-1.2,14.9-20.4,24.2-35c4.1-6.1,10.4-16.9,13.9-24c3.7-7.1,8.8-16.7,11.4-21.6c2.6-4.9,8.1-17.7,12.4-28.5
		c4.1-10.8,8.3-21.4,9-23.6c5.5-13.9,13.9-49.9,17.7-75.6c4.1-29.1,1-76.8-7.1-103.1c-3.3-10.8-4.1-12.8-11.4-28.5
		c-15.7-33.8-40.9-64.4-69.7-84.5c-3.9-2.8-8.8-6.5-11-8.6c-7.1-6.3-43-22.4-64-28.5c-11.2-3.3-27.9-6.9-37.1-8.3
		C634.9,131.9,584,130.5,577.6,132.9z"/>
</g>
</svg>
